<svg xmlns="http://www.w3.org/2000/svg" xmlns:xlink="http://www.w3.org/1999/xlink" width="500" zoomAndPan="magnify" viewBox="0 0 375 374.999991" height="500" preserveAspectRatio="xMidYMid meet" version="1.2"><defs><clipPath id="7918970d18"><path d="M 165 152 L 210 152 L 210 158.484375 L 165 158.484375 Z M 165 152 "/></clipPath><clipPath id="25cb4a2a05"><path d="M 156.109375 125.484375 L 219 125.484375 L 219 155 L 156.109375 155 Z M 156.109375 125.484375 "/></clipPath><clipPath id="f79540fadd"><rect x="0" width="80" y="0" height="10"/></clipPath></defs><g id="2762fcd051"><g clip-rule="nonzero" clip-path="url(#7918970d18)"><path style=" stroke:none;fill-rule:nonzero;fill:#f4f2c4;fill-opacity:1;" d="M 187.5 152.582031 C 187.5 152.582031 187.5 152.582031 187.496094 152.582031 C 187.496094 152.582031 187.496094 152.582031 187.492188 152.582031 C 187.484375 152.582031 187.480469 152.582031 187.472656 152.582031 C 176.148438 152.582031 168.359375 154.191406 165.796875 155.636719 C 168.363281 157.074219 176.140625 158.683594 187.457031 158.695312 L 187.535156 158.695312 C 198.851562 158.683594 206.632812 157.074219 209.199219 155.636719 C 206.636719 154.191406 198.847656 152.582031 187.523438 152.582031 C 187.515625 152.582031 187.507812 152.582031 187.5 152.582031 "/></g><g clip-rule="nonzero" clip-path="url(#25cb4a2a05)"><path style=" stroke:none;fill-rule:nonzero;fill:#f4f2c4;fill-opacity:1;" d="M 215.761719 138.152344 C 215.191406 138.628906 215.277344 139.015625 215.117188 139.449219 C 215.03125 139.683594 214.933594 139.996094 214.507812 140.367188 C 214.507812 140.367188 209.023438 146.050781 205.351562 144.835938 C 199.910156 143.03125 202.894531 136.023438 202.894531 136.023438 L 203.457031 134.796875 C 203.738281 134.183594 204.570312 133.929688 204.90625 133.722656 C 205.523438 133.351562 205.726562 133.476562 206.089844 132.679688 C 206.679688 131.386719 206.128906 129.105469 205.949219 128.625 C 205.425781 128.902344 203.265625 130.097656 202.675781 131.390625 C 202.3125 132.1875 202.765625 132.652344 202.933594 133.253906 C 203.023438 133.585938 203.167969 134.015625 202.890625 134.628906 L 202.328125 135.859375 C 202.328125 135.859375 198.980469 142.59375 193.980469 142.636719 C 187.875 142.691406 187.851562 132.746094 187.851562 132.746094 C 187.851562 132.015625 188.230469 131.609375 188.503906 131.289062 C 188.996094 130.703125 189.734375 130.355469 189.734375 129.402344 C 189.734375 127.898438 188.03125 126.035156 187.535156 125.523438 L 187.535156 125.515625 C 187.527344 125.503906 187.515625 125.492188 187.507812 125.484375 C 187.503906 125.484375 187.503906 125.488281 187.5 125.488281 C 187.5 125.488281 187.5 125.484375 187.496094 125.484375 C 187.496094 125.484375 187.496094 125.488281 187.492188 125.488281 C 187.492188 125.488281 187.488281 125.484375 187.488281 125.484375 C 187.480469 125.492188 187.46875 125.503906 187.457031 125.515625 L 187.457031 125.523438 C 186.960938 126.035156 185.257812 127.898438 185.257812 129.402344 C 185.257812 130.355469 186 130.703125 186.492188 131.289062 C 186.761719 131.609375 187.140625 132.015625 187.140625 132.746094 C 187.140625 132.746094 187.117188 142.691406 181.011719 142.636719 C 176.015625 142.59375 172.664062 135.859375 172.664062 135.859375 L 172.105469 134.628906 C 171.824219 134.015625 171.96875 133.585938 172.0625 133.253906 C 172.230469 132.652344 172.683594 132.1875 172.320312 131.390625 C 171.730469 130.097656 169.566406 128.902344 169.042969 128.625 C 168.867188 129.105469 168.3125 131.386719 168.902344 132.679688 C 169.269531 133.476562 169.472656 133.351562 170.085938 133.722656 C 170.421875 133.929688 171.257812 134.183594 171.539062 134.796875 L 172.097656 136.023438 C 172.097656 136.023438 175.085938 143.03125 169.640625 144.835938 C 165.96875 146.050781 160.484375 140.367188 160.484375 140.367188 C 160.0625 139.996094 159.964844 139.683594 159.875 139.449219 C 159.71875 139.015625 159.800781 138.628906 159.234375 138.152344 C 158.253906 137.328125 156.492188 136.839844 156.128906 136.75 C 156.226562 137.101562 156.984375 138.78125 157.878906 139.570312 C 158.433594 140.054688 158.957031 139.894531 159.421875 140.179688 C 164.628906 143.382812 165.042969 154.5625 165.042969 154.5625 L 165.089844 154.5625 C 165.8125 152.855469 175.550781 151.121094 187.464844 151.121094 C 187.46875 151.121094 187.523438 151.121094 187.53125 151.121094 C 199.445312 151.121094 209.179688 152.855469 209.902344 154.5625 L 209.949219 154.5625 C 209.949219 154.5625 210.363281 143.382812 215.570312 140.179688 C 216.039062 139.894531 216.558594 140.054688 217.113281 139.570312 C 218.011719 138.78125 218.769531 137.101562 218.867188 136.75 C 218.5 136.839844 216.738281 137.328125 215.761719 138.152344 "/></g><g style="fill:#f4f2c4;fill-opacity:1;"><g transform="translate(71.725766, 190.124988)"><path style="stroke:none" d="M 6.578125 -12.28125 C 7.835938 -12.28125 8.90625 -12.015625 9.78125 -11.484375 C 10.664062 -10.960938 11.328125 -10.226562 11.765625 -9.28125 C 12.203125 -8.34375 12.421875 -7.265625 12.421875 -6.046875 C 12.421875 -5.003906 12.289062 -4.128906 12.03125 -3.421875 C 11.769531 -2.722656 11.40625 -2.09375 10.9375 -1.53125 C 11.570312 -1.03125 12.21875 -0.6875 12.875 -0.5 L 11.984375 1.21875 C 11.585938 1.09375 11.25 0.953125 10.96875 0.796875 C 10.6875 0.640625 10.304688 0.390625 9.828125 0.046875 L 9.28125 -0.296875 C 8.445312 0.0351562 7.570312 0.203125 6.65625 0.203125 C 5.320312 0.203125 4.210938 -0.0625 3.328125 -0.59375 C 2.453125 -1.132812 1.796875 -1.867188 1.359375 -2.796875 C 0.929688 -3.734375 0.71875 -4.816406 0.71875 -6.046875 C 0.71875 -7.316406 0.945312 -8.414062 1.40625 -9.34375 C 1.863281 -10.28125 2.53125 -11.003906 3.40625 -11.515625 C 4.28125 -12.023438 5.335938 -12.28125 6.578125 -12.28125 Z M 3.234375 -6.046875 C 3.234375 -5.023438 3.398438 -4.207031 3.734375 -3.59375 C 4.066406 -2.976562 4.484375 -2.539062 4.984375 -2.28125 C 5.484375 -2.019531 6.019531 -1.890625 6.59375 -1.890625 C 6.851562 -1.890625 7.15625 -1.921875 7.5 -1.984375 C 7.320312 -2.097656 7.085938 -2.226562 6.796875 -2.375 C 6.503906 -2.53125 6.234375 -2.65625 5.984375 -2.75 L 6.671875 -4.15625 C 7.453125 -3.875 8.222656 -3.457031 8.984375 -2.90625 C 9.597656 -3.632812 9.90625 -4.679688 9.90625 -6.046875 C 9.90625 -7.253906 9.632812 -8.242188 9.09375 -9.015625 C 8.550781 -9.796875 7.703125 -10.1875 6.546875 -10.1875 C 5.390625 -10.1875 4.546875 -9.789062 4.015625 -9 C 3.492188 -8.207031 3.234375 -7.222656 3.234375 -6.046875 Z M 3.234375 -6.046875 "/></g></g><g style="fill:#f4f2c4;fill-opacity:1;"><g transform="translate(87.167324, 190.124988)"><path style="stroke:none" d="M 3.640625 -5.0625 C 3.640625 -4.382812 3.671875 -3.898438 3.734375 -3.609375 C 3.816406 -3.109375 4.046875 -2.695312 4.421875 -2.375 C 4.804688 -2.050781 5.363281 -1.890625 6.09375 -1.890625 C 6.769531 -1.890625 7.273438 -2.007812 7.609375 -2.25 C 7.941406 -2.5 8.160156 -2.84375 8.265625 -3.28125 C 8.367188 -3.71875 8.421875 -4.304688 8.421875 -5.046875 L 8.421875 -12.078125 L 10.84375 -12.078125 L 10.84375 -5.46875 C 10.84375 -4.457031 10.800781 -3.632812 10.71875 -3 C 10.382812 -0.863281 8.863281 0.203125 6.15625 0.203125 C 4.707031 0.203125 3.625 -0.0390625 2.90625 -0.53125 C 2.1875 -1.019531 1.722656 -1.640625 1.515625 -2.390625 C 1.316406 -3.148438 1.21875 -4.101562 1.21875 -5.25 L 1.21875 -12.078125 L 3.640625 -12.078125 Z M 3.640625 -5.0625 "/></g></g><g style="fill:#f4f2c4;fill-opacity:1;"><g transform="translate(101.663874, 190.124988)"><path style="stroke:none" d="M 10.1875 -10.046875 L 3.65625 -10.046875 L 3.65625 -7.359375 L 9.734375 -7.359375 L 9.734375 -5.3125 L 3.65625 -5.3125 L 3.65625 -2.046875 L 10.40625 -2.046875 L 10.40625 0 L 1.234375 0 L 1.234375 -12.078125 L 10.1875 -12.078125 Z M 10.1875 -10.046875 "/></g></g><g style="fill:#f4f2c4;fill-opacity:1;"><g transform="translate(115.232297, 190.124988)"><path style="stroke:none" d="M 10.1875 -10.046875 L 3.65625 -10.046875 L 3.65625 -7.359375 L 9.734375 -7.359375 L 9.734375 -5.3125 L 3.65625 -5.3125 L 3.65625 -2.046875 L 10.40625 -2.046875 L 10.40625 0 L 1.234375 0 L 1.234375 -12.078125 L 10.1875 -12.078125 Z M 10.1875 -10.046875 "/></g></g><g style="fill:#f4f2c4;fill-opacity:1;"><g transform="translate(128.80072, 190.124988)"><path style="stroke:none" d="M 8.5625 -4.015625 L 8.5625 -12.078125 L 10.8125 -12.078125 L 10.8125 0 L 8.375 0 L 3.515625 -7.875 L 3.515625 0 L 1.25 0 L 1.25 -12.078125 L 3.609375 -12.078125 Z M 8.5625 -4.015625 "/></g></g><g style="fill:#f4f2c4;fill-opacity:1;"><g transform="translate(143.297271, 190.124988)"><path style="stroke:none" d="M 3.453125 -10.203125 C 3.453125 -9.367188 3.289062 -8.707031 2.96875 -8.21875 C 2.65625 -7.738281 2.132812 -7.359375 1.40625 -7.078125 L 0.9375 -8.03125 C 1.394531 -8.175781 1.726562 -8.382812 1.9375 -8.65625 C 2.144531 -8.925781 2.253906 -9.296875 2.265625 -9.765625 L 1.140625 -9.765625 L 1.140625 -12.078125 L 3.453125 -12.078125 Z M 3.453125 -10.203125 "/></g></g><g style="fill:#f4f2c4;fill-opacity:1;"><g transform="translate(150.301306, 190.124988)"><path style="stroke:none" d="M 5.453125 -12.28125 C 6.785156 -12.28125 7.875 -11.984375 8.71875 -11.390625 C 9.570312 -10.796875 10.023438 -9.875 10.078125 -8.625 L 7.625 -8.515625 C 7.550781 -9.078125 7.347656 -9.507812 7.015625 -9.8125 C 6.679688 -10.125 6.148438 -10.28125 5.421875 -10.28125 C 4.910156 -10.28125 4.441406 -10.1875 4.015625 -10 C 3.585938 -9.820312 3.375 -9.515625 3.375 -9.078125 C 3.375 -8.703125 3.5625 -8.40625 3.9375 -8.1875 C 4.320312 -7.96875 5.003906 -7.75 5.984375 -7.53125 C 6.898438 -7.3125 7.648438 -7.082031 8.234375 -6.84375 C 8.828125 -6.601562 9.335938 -6.210938 9.765625 -5.671875 C 10.191406 -5.140625 10.40625 -4.421875 10.40625 -3.515625 C 10.40625 -3.046875 10.296875 -2.550781 10.078125 -2.03125 C 9.867188 -1.519531 9.523438 -1.078125 9.046875 -0.703125 C 8.679688 -0.410156 8.203125 -0.1875 7.609375 -0.03125 C 7.023438 0.125 6.34375 0.203125 5.5625 0.203125 C 4.0625 0.203125 2.90625 -0.132812 2.09375 -0.8125 C 1.28125 -1.5 0.785156 -2.539062 0.609375 -3.9375 L 2.96875 -4.15625 C 3.226562 -2.613281 4.109375 -1.84375 5.609375 -1.84375 C 6.390625 -1.84375 6.976562 -2.003906 7.375 -2.328125 C 7.78125 -2.660156 7.984375 -3.054688 7.984375 -3.515625 C 7.984375 -3.835938 7.882812 -4.09375 7.6875 -4.28125 C 7.488281 -4.476562 7.175781 -4.644531 6.75 -4.78125 C 6.332031 -4.925781 5.675781 -5.101562 4.78125 -5.3125 C 3.65625 -5.5625 2.75 -5.976562 2.0625 -6.5625 C 1.382812 -7.144531 1.046875 -7.925781 1.046875 -8.90625 C 1.046875 -9.4375 1.179688 -9.957031 1.453125 -10.46875 C 1.722656 -10.976562 2.1875 -11.40625 2.84375 -11.75 C 3.5 -12.101562 4.367188 -12.28125 5.453125 -12.28125 Z M 5.453125 -12.28125 "/></g></g><g style="fill:#f4f2c4;fill-opacity:1;"><g transform="translate(163.869729, 190.124988)"><path style="stroke:none" d=""/></g></g><g style="fill:#f4f2c4;fill-opacity:1;"><g transform="translate(170.873765, 190.124988)"><path style="stroke:none" d="M 3.65625 -7.328125 L 8.4375 -7.328125 L 8.4375 -12.078125 L 10.875 -12.078125 L 10.875 0 L 8.4375 0 L 8.4375 -5.28125 L 3.65625 -5.28125 L 3.65625 0 L 1.234375 0 L 1.234375 -12.078125 L 3.65625 -12.078125 Z M 3.65625 -7.328125 "/></g></g><g style="fill:#f4f2c4;fill-opacity:1;"><g transform="translate(185.370315, 190.124988)"><path style="stroke:none" d="M 10.1875 -10.046875 L 3.65625 -10.046875 L 3.65625 -7.359375 L 9.734375 -7.359375 L 9.734375 -5.3125 L 3.65625 -5.3125 L 3.65625 -2.046875 L 10.40625 -2.046875 L 10.40625 0 L 1.234375 0 L 1.234375 -12.078125 L 10.1875 -12.078125 Z M 10.1875 -10.046875 "/></g></g><g style="fill:#f4f2c4;fill-opacity:1;"><g transform="translate(198.938738, 190.124988)"><path style="stroke:none" d="M 9.5625 -10.953125 C 10.75 -9.890625 11.34375 -8.203125 11.34375 -5.890625 C 11.34375 -3.941406 10.816406 -2.414062 9.765625 -1.3125 C 8.941406 -0.4375 7.675781 0 5.96875 0 L 1.21875 0 L 1.21875 -12.078125 L 5.921875 -12.078125 C 6.773438 -12.078125 7.484375 -11.988281 8.046875 -11.8125 C 8.609375 -11.644531 9.113281 -11.359375 9.5625 -10.953125 Z M 8.828125 -6.03125 C 8.828125 -7.1875 8.6875 -8.050781 8.40625 -8.625 C 8.132812 -9.207031 7.738281 -9.585938 7.21875 -9.765625 C 6.707031 -9.953125 6 -10.046875 5.09375 -10.046875 L 3.640625 -10.046875 L 3.640625 -2.046875 L 5.671875 -2.046875 C 6.421875 -2.046875 7.019531 -2.140625 7.46875 -2.328125 C 7.914062 -2.523438 8.253906 -2.910156 8.484375 -3.484375 C 8.710938 -4.066406 8.828125 -4.914062 8.828125 -6.03125 Z M 8.828125 -6.03125 "/></g></g><g style="fill:#f4f2c4;fill-opacity:1;"><g transform="translate(213.435289, 190.124988)"><path style="stroke:none" d="M 6.796875 -12.28125 C 8.179688 -12.28125 9.316406 -11.988281 10.203125 -11.40625 C 11.097656 -10.832031 11.679688 -9.941406 11.953125 -8.734375 L 9.515625 -8.28125 C 9.335938 -8.914062 9.003906 -9.390625 8.515625 -9.703125 C 8.023438 -10.023438 7.457031 -10.1875 6.8125 -10.1875 C 6.164062 -10.1875 5.59375 -10.0625 5.09375 -9.8125 C 4.601562 -9.570312 4.210938 -9.210938 3.921875 -8.734375 C 3.523438 -8.109375 3.328125 -7.253906 3.328125 -6.171875 C 3.328125 -4.898438 3.613281 -3.867188 4.1875 -3.078125 C 4.757812 -2.285156 5.625 -1.890625 6.78125 -1.890625 C 7.28125 -1.890625 7.773438 -1.984375 8.265625 -2.171875 C 8.765625 -2.359375 9.222656 -2.609375 9.640625 -2.921875 L 9.640625 -4.4375 L 6.84375 -4.4375 L 6.84375 -6.484375 L 12.09375 -6.484375 L 12.09375 -1.671875 C 11.488281 -1.109375 10.710938 -0.65625 9.765625 -0.3125 C 8.816406 0.03125 7.875 0.203125 6.9375 0.203125 C 5.582031 0.203125 4.445312 -0.078125 3.53125 -0.640625 C 2.613281 -1.203125 1.929688 -1.957031 1.484375 -2.90625 C 1.035156 -3.863281 0.8125 -4.921875 0.8125 -6.078125 C 0.8125 -7.203125 1.03125 -8.234375 1.46875 -9.171875 C 1.90625 -10.109375 2.570312 -10.859375 3.46875 -11.421875 C 4.375 -11.992188 5.484375 -12.28125 6.796875 -12.28125 Z M 6.796875 -12.28125 "/></g></g><g style="fill:#f4f2c4;fill-opacity:1;"><g transform="translate(228.876846, 190.124988)"><path style="stroke:none" d="M 10.1875 -10.046875 L 3.65625 -10.046875 L 3.65625 -7.359375 L 9.734375 -7.359375 L 9.734375 -5.3125 L 3.65625 -5.3125 L 3.65625 -2.046875 L 10.40625 -2.046875 L 10.40625 0 L 1.234375 0 L 1.234375 -12.078125 L 10.1875 -12.078125 Z M 10.1875 -10.046875 "/></g></g><g style="fill:#f4f2c4;fill-opacity:1;"><g transform="translate(242.445269, 190.124988)"><path style="stroke:none" d=""/></g></g><g style="fill:#f4f2c4;fill-opacity:1;"><g transform="translate(249.449305, 190.124988)"><path style="stroke:none" d="M 9.53125 -10.046875 L 3.671875 -10.046875 L 3.671875 -7.171875 L 8.734375 -7.171875 L 8.734375 -5.125 L 3.671875 -5.125 L 3.671875 0 L 1.25 0 L 1.25 -12.078125 L 9.53125 -12.078125 Z M 9.53125 -10.046875 "/></g></g><g style="fill:#f4f2c4;fill-opacity:1;"><g transform="translate(262.072733, 190.124988)"><path style="stroke:none" d="M 3.640625 -5.0625 C 3.640625 -4.382812 3.671875 -3.898438 3.734375 -3.609375 C 3.816406 -3.109375 4.046875 -2.695312 4.421875 -2.375 C 4.804688 -2.050781 5.363281 -1.890625 6.09375 -1.890625 C 6.769531 -1.890625 7.273438 -2.007812 7.609375 -2.25 C 7.941406 -2.5 8.160156 -2.84375 8.265625 -3.28125 C 8.367188 -3.71875 8.421875 -4.304688 8.421875 -5.046875 L 8.421875 -12.078125 L 10.84375 -12.078125 L 10.84375 -5.46875 C 10.84375 -4.457031 10.800781 -3.632812 10.71875 -3 C 10.382812 -0.863281 8.863281 0.203125 6.15625 0.203125 C 4.707031 0.203125 3.625 -0.0390625 2.90625 -0.53125 C 2.1875 -1.019531 1.722656 -1.640625 1.515625 -2.390625 C 1.316406 -3.148438 1.21875 -4.101562 1.21875 -5.25 L 1.21875 -12.078125 L 3.640625 -12.078125 Z M 3.640625 -5.0625 "/></g></g><g style="fill:#f4f2c4;fill-opacity:1;"><g transform="translate(276.569272, 190.124988)"><path style="stroke:none" d="M 8.5625 -4.015625 L 8.5625 -12.078125 L 10.8125 -12.078125 L 10.8125 0 L 8.375 0 L 3.515625 -7.875 L 3.515625 0 L 1.25 0 L 1.25 -12.078125 L 3.609375 -12.078125 Z M 8.5625 -4.015625 "/></g></g><g style="fill:#f4f2c4;fill-opacity:1;"><g transform="translate(291.065822, 190.124988)"><path style="stroke:none" d="M 9.5625 -10.953125 C 10.75 -9.890625 11.34375 -8.203125 11.34375 -5.890625 C 11.34375 -3.941406 10.816406 -2.414062 9.765625 -1.3125 C 8.941406 -0.4375 7.675781 0 5.96875 0 L 1.21875 0 L 1.21875 -12.078125 L 5.921875 -12.078125 C 6.773438 -12.078125 7.484375 -11.988281 8.046875 -11.8125 C 8.609375 -11.644531 9.113281 -11.359375 9.5625 -10.953125 Z M 8.828125 -6.03125 C 8.828125 -7.1875 8.6875 -8.050781 8.40625 -8.625 C 8.132812 -9.207031 7.738281 -9.585938 7.21875 -9.765625 C 6.707031 -9.953125 6 -10.046875 5.09375 -10.046875 L 3.640625 -10.046875 L 3.640625 -2.046875 L 5.671875 -2.046875 C 6.421875 -2.046875 7.019531 -2.140625 7.46875 -2.328125 C 7.914062 -2.523438 8.253906 -2.910156 8.484375 -3.484375 C 8.710938 -4.066406 8.828125 -4.914062 8.828125 -6.03125 Z M 8.828125 -6.03125 "/></g></g><g transform="matrix(1,0,0,1,150,208)"><g clip-path="url(#f79540fadd)"><g style="fill:#d9d9d9;fill-opacity:1;"><g transform="translate(0.205605, 7.141219)"><path style="stroke:none" d="M 4.125 -5.984375 L 4.125 -5.1875 L 1.34375 -5.1875 L 1.34375 -3.5625 L 3.828125 -3.5625 L 3.828125 -2.734375 L 1.34375 -2.734375 L 1.34375 -0.8125 L 4.125 -0.8125 L 4.125 0 L 0.46875 0 L 0.46875 -5.984375 Z M 4.125 -5.984375 "/></g></g><g style="fill:#d9d9d9;fill-opacity:1;"><g transform="translate(9.439924, 7.141219)"><path style="stroke:none" d="M 4.46875 -1.671875 C 4.46875 -1.421875 4.414062 -1.1875 4.3125 -0.96875 C 4.207031 -0.757812 4.054688 -0.570312 3.859375 -0.40625 C 3.472656 -0.0820312 2.976562 0.078125 2.375 0.078125 C 1.894531 0.078125 1.460938 -0.015625 1.078125 -0.203125 C 0.703125 -0.398438 0.425781 -0.660156 0.25 -0.984375 L 1 -1.375 C 1.113281 -1.175781 1.289062 -1.019531 1.53125 -0.90625 C 1.769531 -0.800781 2.050781 -0.75 2.375 -0.75 C 3.1875 -0.75 3.59375 -1.054688 3.59375 -1.671875 C 3.59375 -1.796875 3.570312 -1.898438 3.53125 -1.984375 C 3.488281 -2.066406 3.425781 -2.144531 3.34375 -2.21875 C 3.132812 -2.382812 2.769531 -2.535156 2.25 -2.671875 C 1.9375 -2.753906 1.671875 -2.84375 1.453125 -2.9375 C 1.234375 -3.03125 1.050781 -3.144531 0.90625 -3.28125 C 0.550781 -3.5625 0.375 -3.9375 0.375 -4.40625 C 0.375 -4.644531 0.421875 -4.867188 0.515625 -5.078125 C 0.609375 -5.285156 0.738281 -5.460938 0.90625 -5.609375 C 1.082031 -5.765625 1.285156 -5.878906 1.515625 -5.953125 C 1.742188 -6.023438 2 -6.0625 2.28125 -6.0625 C 2.695312 -6.0625 3.078125 -5.984375 3.421875 -5.828125 C 3.765625 -5.671875 4.023438 -5.445312 4.203125 -5.15625 L 3.53125 -4.734375 C 3.363281 -4.929688 3.171875 -5.070312 2.953125 -5.15625 C 2.742188 -5.238281 2.519531 -5.28125 2.28125 -5.28125 C 2.113281 -5.28125 1.957031 -5.25 1.8125 -5.1875 C 1.675781 -5.132812 1.5625 -5.070312 1.46875 -5 C 1.382812 -4.925781 1.320312 -4.835938 1.28125 -4.734375 C 1.25 -4.640625 1.234375 -4.535156 1.234375 -4.421875 C 1.234375 -4.347656 1.242188 -4.273438 1.265625 -4.203125 C 1.296875 -4.128906 1.351562 -4.050781 1.4375 -3.96875 C 1.519531 -3.882812 1.640625 -3.804688 1.796875 -3.734375 C 1.960938 -3.660156 2.1875 -3.585938 2.46875 -3.515625 C 2.8125 -3.429688 3.097656 -3.335938 3.328125 -3.234375 C 3.554688 -3.140625 3.75 -3.023438 3.90625 -2.890625 C 4.28125 -2.585938 4.46875 -2.179688 4.46875 -1.671875 Z M 4.46875 -1.671875 "/></g></g><g style="fill:#d9d9d9;fill-opacity:1;"><g transform="translate(18.935915, 7.141219)"><path style="stroke:none" d="M 1.65625 -5.1875 L 0.046875 -5.1875 L 0.046875 -5.984375 L 4.171875 -5.984375 L 4.171875 -5.1875 L 2.546875 -5.1875 L 2.546875 0 L 1.65625 0 Z M 1.65625 -5.1875 "/></g></g><g style="fill:#d9d9d9;fill-opacity:1;"><g transform="translate(27.942326, 7.141219)"><path style="stroke:none" d="M 0.359375 -0.4375 C 0.359375 -0.582031 0.410156 -0.707031 0.515625 -0.8125 C 0.617188 -0.914062 0.742188 -0.96875 0.890625 -0.96875 C 1.035156 -0.96875 1.15625 -0.914062 1.25 -0.8125 C 1.351562 -0.707031 1.40625 -0.582031 1.40625 -0.4375 C 1.40625 -0.289062 1.351562 -0.164062 1.25 -0.0625 C 1.15625 0.03125 1.035156 0.078125 0.890625 0.078125 C 0.742188 0.078125 0.617188 0.03125 0.515625 -0.0625 C 0.410156 -0.164062 0.359375 -0.289062 0.359375 -0.4375 Z M 0.359375 -0.4375 "/></g></g><g style="fill:#d9d9d9;fill-opacity:1;"><g transform="translate(34.559969, 7.141219)"><path style="stroke:none" d=""/></g></g><g style="fill:#d9d9d9;fill-opacity:1;"><g transform="translate(41.363304, 7.141219)"><path style="stroke:none" d="M 0.375 0 L 0.375 -0.59375 L 2.09375 -2.546875 C 2.351562 -2.859375 2.554688 -3.097656 2.703125 -3.265625 C 2.859375 -3.441406 2.976562 -3.582031 3.0625 -3.6875 C 3.144531 -3.800781 3.195312 -3.894531 3.21875 -3.96875 C 3.238281 -4.050781 3.25 -4.15625 3.25 -4.28125 C 3.25 -4.59375 3.15625 -4.828125 2.96875 -4.984375 C 2.78125 -5.148438 2.554688 -5.234375 2.296875 -5.234375 C 2.160156 -5.234375 2.035156 -5.207031 1.921875 -5.15625 C 1.804688 -5.101562 1.703125 -5.03125 1.609375 -4.9375 C 1.523438 -4.84375 1.457031 -4.738281 1.40625 -4.625 C 1.351562 -4.519531 1.328125 -4.40625 1.328125 -4.28125 L 0.46875 -4.28125 C 0.46875 -4.519531 0.515625 -4.75 0.609375 -4.96875 C 0.710938 -5.1875 0.84375 -5.375 1 -5.53125 C 1.164062 -5.695312 1.359375 -5.828125 1.578125 -5.921875 C 1.804688 -6.015625 2.046875 -6.0625 2.296875 -6.0625 C 2.546875 -6.0625 2.78125 -6.015625 3 -5.921875 C 3.21875 -5.828125 3.410156 -5.695312 3.578125 -5.53125 C 3.742188 -5.375 3.875 -5.1875 3.96875 -4.96875 C 4.0625 -4.75 4.109375 -4.519531 4.109375 -4.28125 C 4.109375 -4.09375 4.082031 -3.914062 4.03125 -3.75 C 3.988281 -3.582031 3.914062 -3.429688 3.8125 -3.296875 L 1.6875 -0.8125 L 4.234375 -0.8125 L 4.234375 0 Z M 0.375 0 "/></g></g><g style="fill:#d9d9d9;fill-opacity:1;"><g transform="translate(50.614505, 7.141219)"><path style="stroke:none" d="M 2.40625 0.078125 C 2.113281 0.078125 1.835938 0.0078125 1.578125 -0.125 C 1.328125 -0.257812 1.101562 -0.453125 0.90625 -0.703125 C 0.71875 -0.953125 0.566406 -1.238281 0.453125 -1.5625 C 0.347656 -1.882812 0.296875 -2.226562 0.296875 -2.59375 L 0.296875 -3.328125 C 0.296875 -3.734375 0.347656 -4.097656 0.453125 -4.421875 C 0.554688 -4.753906 0.695312 -5.046875 0.875 -5.296875 C 1.050781 -5.535156 1.269531 -5.722656 1.53125 -5.859375 C 1.800781 -5.992188 2.09375 -6.0625 2.40625 -6.0625 C 2.71875 -6.0625 3.003906 -5.992188 3.265625 -5.859375 C 3.523438 -5.734375 3.742188 -5.546875 3.921875 -5.296875 C 4.097656 -5.054688 4.238281 -4.769531 4.34375 -4.4375 C 4.457031 -4.101562 4.515625 -3.734375 4.515625 -3.328125 L 4.515625 -2.59375 C 4.515625 -2.207031 4.457031 -1.847656 4.34375 -1.515625 C 4.238281 -1.191406 4.09375 -0.910156 3.90625 -0.671875 C 3.71875 -0.429688 3.492188 -0.242188 3.234375 -0.109375 C 2.984375 0.015625 2.707031 0.078125 2.40625 0.078125 Z M 1.171875 -2.59375 C 1.171875 -2.3125 1.203125 -2.050781 1.265625 -1.8125 C 1.328125 -1.582031 1.425781 -1.382812 1.5625 -1.21875 C 1.675781 -1.070312 1.800781 -0.957031 1.9375 -0.875 C 2.082031 -0.789062 2.238281 -0.75 2.40625 -0.75 C 2.59375 -0.75 2.757812 -0.789062 2.90625 -0.875 C 3.0625 -0.96875 3.191406 -1.09375 3.296875 -1.25 C 3.410156 -1.414062 3.5 -1.609375 3.5625 -1.828125 C 3.625 -2.054688 3.65625 -2.3125 3.65625 -2.59375 L 3.65625 -3.328125 C 3.65625 -3.960938 3.523438 -4.453125 3.265625 -4.796875 C 3.046875 -5.078125 2.757812 -5.21875 2.40625 -5.21875 C 2.039062 -5.21875 1.75 -5.078125 1.53125 -4.796875 C 1.289062 -4.460938 1.171875 -3.972656 1.171875 -3.328125 Z M 1.171875 -2.59375 "/></g></g><g style="fill:#d9d9d9;fill-opacity:1;"><g transform="translate(60.110497, 7.141219)"><path style="stroke:none" d="M 0.375 0 L 0.375 -0.59375 L 2.09375 -2.546875 C 2.351562 -2.859375 2.554688 -3.097656 2.703125 -3.265625 C 2.859375 -3.441406 2.976562 -3.582031 3.0625 -3.6875 C 3.144531 -3.800781 3.195312 -3.894531 3.21875 -3.96875 C 3.238281 -4.050781 3.25 -4.15625 3.25 -4.28125 C 3.25 -4.59375 3.15625 -4.828125 2.96875 -4.984375 C 2.78125 -5.148438 2.554688 -5.234375 2.296875 -5.234375 C 2.160156 -5.234375 2.035156 -5.207031 1.921875 -5.15625 C 1.804688 -5.101562 1.703125 -5.03125 1.609375 -4.9375 C 1.523438 -4.84375 1.457031 -4.738281 1.40625 -4.625 C 1.351562 -4.519531 1.328125 -4.40625 1.328125 -4.28125 L 0.46875 -4.28125 C 0.46875 -4.519531 0.515625 -4.75 0.609375 -4.96875 C 0.710938 -5.1875 0.84375 -5.375 1 -5.53125 C 1.164062 -5.695312 1.359375 -5.828125 1.578125 -5.921875 C 1.804688 -6.015625 2.046875 -6.0625 2.296875 -6.0625 C 2.546875 -6.0625 2.78125 -6.015625 3 -5.921875 C 3.21875 -5.828125 3.410156 -5.695312 3.578125 -5.53125 C 3.742188 -5.375 3.875 -5.1875 3.96875 -4.96875 C 4.0625 -4.75 4.109375 -4.519531 4.109375 -4.28125 C 4.109375 -4.09375 4.082031 -3.914062 4.03125 -3.75 C 3.988281 -3.582031 3.914062 -3.429688 3.8125 -3.296875 L 1.6875 -0.8125 L 4.234375 -0.8125 L 4.234375 0 Z M 0.375 0 "/></g></g><g style="fill:#d9d9d9;fill-opacity:1;"><g transform="translate(69.361698, 7.141219)"><path style="stroke:none" d="M 0.640625 -1.09375 L 0.359375 -1.53125 L 3.5 -5.984375 L 4.1875 -5.984375 L 4.1875 -1.890625 L 5.15625 -1.890625 L 5.15625 -1.09375 L 4.1875 -1.09375 L 4.1875 0 L 3.3125 0 L 3.3125 -1.09375 Z M 1.625 -1.890625 L 3.296875 -1.890625 L 3.296875 -4.296875 Z M 1.625 -1.890625 "/></g></g></g></g></g></svg>