<svg xmlns="http://www.w3.org/2000/svg" viewBox="0 0 64 64" fill="none">
  <rect x="6" y="6" width="52" height="52" rx="12" fill="#0C1C2C" stroke="#1F3146" />
  <path d="M18 26h28l2 18H16l2-18Z" fill="#10273B" stroke="#28425B" stroke-width="2" stroke-linejoin="round" />
  <path d="M24 26c0-5 3-8 8-8s8 3 8 8" stroke="#C5A16D" stroke-width="2" stroke-linecap="round" />
  <path d="M22 34h20" stroke="#C5A16D" stroke-width="2" stroke-linecap="round" />
  <path d="M24 38s2 4 8 4 8-4 8-4" stroke="#C5A16D" stroke-width="2" stroke-linecap="round" stroke-linejoin="round" />
  <path d="M20 34c0-6 6-10 12-10 2.5 0 4.5.4 6.5 1.3" stroke="#8FB892" stroke-width="2" stroke-linecap="round" />
  <path d="M40 24c1.5 2.5 1.2 6-1 8-2.5 2.5-6 2-6 2s-.5-3.5 2-6c2.2-2.2 4.7-2.4 5-.4Z" fill="#8FB892" stroke="#8FB892" stroke-width="1" stroke-linejoin="round" />
</svg>
